HIERARCHY
ROOT Hips
{
    OFFSET   0.000000   0.000000   0.000000
    CHANNELS 6 Xposition Yposition Zposition Zrotation Xrotation Yrotation
    JOINT Chest
    {
        OFFSET   0.000000   8.007230   0.000000
        CHANNELS 3 Zrotation Xrotation Yrotation
        JOINT Chest2
        {
            OFFSET   0.000000  22.077100   0.000000
            CHANNELS 3 Zrotation Xrotation Yrotation
            JOINT Neck
            {
                OFFSET   0.000000  23.255100   0.000000
                CHANNELS 3 Zrotation Xrotation Yrotation
                JOINT Head
                {
                    OFFSET   0.000000  14.370100   1.956600
                    CHANNELS 3 Zrotation Xrotation Yrotation
                    End Site
                    {
                        OFFSET   0.000000  19.566000   0.000000
                    }
                }
            }
            JOINT LeftCollar
            {
                OFFSET   3.911900  19.017000  -0.467063
                CHANNELS 3 Zrotation Xrotation Yrotation
                JOINT LeftShoulder
                {
                    OFFSET  10.383700   0.000000   0.000000
                    CHANNELS 3 Zrotation Xrotation Yrotation
                    JOINT LeftElbow
                    {
                        OFFSET  26.662100   0.001193   0.000980
                        CHANNELS 3 Zrotation Xrotation Yrotation
                        JOINT LeftWrist
                        {
                            OFFSET  28.869000  -0.000059  -0.000082
                            CHANNELS 3 Zrotation Xrotation Yrotation
                            JOINT LeftFinger0
                            {
                                OFFSET   2.044650  -2.323450   3.252850
                                CHANNELS 3 Zrotation Xrotation Yrotation
                                JOINT LeftFinger01
                                {
                                    OFFSET   3.088130   0.000000   0.000000
                                    CHANNELS 3 Zrotation Xrotation Yrotation
                                    JOINT LeftFinger02
                                    {
                                        OFFSET   2.639460   0.000000   0.000000
                                        CHANNELS 3 Zrotation Xrotation Yrotation
                                        End Site
                                        {
                                            OFFSET   2.582190   0.000000   0.000000
                                        }
                                    }
                                }
                            }
                            JOINT LeftFinger1
                            {
                                OFFSET   8.364480   0.000000   3.252850
                                CHANNELS 3 Zrotation Xrotation Yrotation
                                JOINT LeftFinger11
                                {
                                    OFFSET   4.646930   0.000000   0.000000
                                    CHANNELS 3 Zrotation Xrotation Yrotation
                                    JOINT LeftFinger12
                                    {
                                        OFFSET   2.323470   0.000000   0.000000
                                        CHANNELS 3 Zrotation Xrotation Yrotation
                                        End Site
                                        {
                                            OFFSET   2.273050   0.000000   0.000000
                                        }
                                    }
                                }
                            }
                            JOINT LeftFinger2
                            {
                                OFFSET   8.364490   0.000016   1.078090
                                CHANNELS 3 Zrotation Xrotation Yrotation
                                JOINT LeftFinger21
                                {
                                    OFFSET   5.111610   0.000000   0.000000
                                    CHANNELS 3 Zrotation Xrotation Yrotation
                                    JOINT LeftFinger22
                                    {
                                        OFFSET   2.788150   0.000016   0.000000
                                        CHANNELS 3 Zrotation Xrotation Yrotation
                                        End Site
                                        {
                                            OFFSET   2.727660   0.000000   0.000000
                                        }
                                    }
                                }
                            }
                            JOINT LeftFinger3
                            {
                                OFFSET   7.899780   0.000015  -1.078090
                                CHANNELS 3 Zrotation Xrotation Yrotation
                                JOINT LeftFinger31
                                {
                                    OFFSET   4.646930   0.000000   0.000000
                                    CHANNELS 3 Zrotation Xrotation Yrotation
                                    JOINT LeftFinger32
                                    {
                                        OFFSET   2.323470   0.000000   0.000000
                                        CHANNELS 3 Zrotation Xrotation Yrotation
                                        End Site
                                        {
                                            OFFSET   2.273050   0.000000   0.000000
                                        }
                                    }
                                }
                            }
                            JOINT LeftFinger4
                            {
                                OFFSET   7.435090   0.000000  -3.252850
                                CHANNELS 3 Zrotation Xrotation Yrotation
                                JOINT LeftFinger41
                                {
                                    OFFSET   3.717550   0.000000   0.000000
                                    CHANNELS 3 Zrotation Xrotation Yrotation
                                    JOINT LeftFinger42
                                    {
                                        OFFSET   1.858770   0.000000   0.000000
                                        CHANNELS 3 Zrotation Xrotation Yrotation
                                        End Site
                                        {
                                            OFFSET   1.818440   0.000000   0.000000
                                        }
                                    }
                                }
                            }
                        }
                    }
                }
            }
            JOINT RightCollar
            {
                OFFSET  -3.911910  19.017000  -0.467062
                CHANNELS 3 Zrotation Xrotation Yrotation
                JOINT RightShoulder
                {
                    OFFSET -10.383700   0.000014   0.000000
                    CHANNELS 3 Zrotation Xrotation Yrotation
                    JOINT RightElbow
                    {
                        OFFSET -26.662100   0.001225   0.001091
                        CHANNELS 3 Zrotation Xrotation Yrotation
                        JOINT RightWrist
                        {
                            OFFSET -28.869000  -0.000020  -0.000085
                            CHANNELS 3 Zrotation Xrotation Yrotation
                            JOINT RightFinger0
                            {
                                OFFSET  -2.044650  -2.323490   3.252850
                                CHANNELS 3 Zrotation Xrotation Yrotation
                                JOINT RightFinger01
                                {
                                    OFFSET  -3.088130   0.000000   0.000000
                                    CHANNELS 3 Zrotation Xrotation Yrotation
                                    JOINT RightFinger02
                                    {
                                        OFFSET  -2.639460   0.000000   0.000000
                                        CHANNELS 3 Zrotation Xrotation Yrotation
                                        End Site
                                        {
                                            OFFSET  -2.582190   0.000000   0.000000
                                        }
                                    }
                                }
                            }
                            JOINT RightFinger1
                            {
                                OFFSET  -8.364480   0.000000   3.252850
                                CHANNELS 3 Zrotation Xrotation Yrotation
                                JOINT RightFinger11
                                {
                                    OFFSET  -4.646930   0.000000   0.000000
                                    CHANNELS 3 Zrotation Xrotation Yrotation
                                    JOINT RightFinger12
                                    {
                                        OFFSET  -2.323470   0.000000   0.000000
                                        CHANNELS 3 Zrotation Xrotation Yrotation
                                        End Site
                                        {
                                            OFFSET  -2.273050   0.000000   0.000000
                                        }
                                    }
                                }
                            }
                            JOINT RightFinger2
                            {
                                OFFSET  -8.364480   0.000000   1.078090
                                CHANNELS 3 Zrotation Xrotation Yrotation
                                JOINT RightFinger21
                                {
                                    OFFSET  -5.111620   0.000000   0.000000
                                    CHANNELS 3 Zrotation Xrotation Yrotation
                                    JOINT RightFinger22
                                    {
                                        OFFSET  -2.788160   0.000000   0.000000
                                        CHANNELS 3 Zrotation Xrotation Yrotation
                                        End Site
                                        {
                                            OFFSET  -2.727660   0.000000   0.000000
                                        }
                                    }
                                }
                            }
                            JOINT RightFinger3
                            {
                                OFFSET  -7.899780   0.000000  -1.078090
                                CHANNELS 3 Zrotation Xrotation Yrotation
                                JOINT RightFinger31
                                {
                                    OFFSET  -4.646930   0.000000   0.000000
                                    CHANNELS 3 Zrotation Xrotation Yrotation
                                    JOINT RightFinger32
                                    {
                                        OFFSET  -2.323470   0.000000   0.000000
                                        CHANNELS 3 Zrotation Xrotation Yrotation
                                        End Site
                                        {
                                            OFFSET  -2.273050   0.000000   0.000000
                                        }
                                    }
                                }
                            }
                            JOINT RightFinger4
                            {
                                OFFSET  -7.435090   0.000000  -3.252850
                                CHANNELS 3 Zrotation Xrotation Yrotation
                                JOINT RightFinger41
                                {
                                    OFFSET  -3.717550   0.000000   0.000000
                                    CHANNELS 3 Zrotation Xrotation Yrotation
                                    JOINT RightFinger42
                                    {
                                        OFFSET  -1.858760   0.000000   0.000000
                                        CHANNELS 3 Zrotation Xrotation Yrotation
                                        End Site
                                        {
                                            OFFSET  -1.818440   0.000000   0.000000
                                        }
                                    }
                                }
                            }
                        }
                    }
                }
            }
        }
    }
    JOINT LeftHip
    {
        OFFSET   9.783030   0.000000   0.000000
        CHANNELS 3 Zrotation Xrotation Yrotation
        JOINT LeftKnee
        {
            OFFSET   0.000063 -41.789100   0.000608
            CHANNELS 3 Zrotation Xrotation Yrotation
            JOINT LeftAnkle
            {
                OFFSET   0.000048 -41.133200  -0.000184
                CHANNELS 3 Zrotation Xrotation Yrotation
                JOINT LeftToe
                {
                    OFFSET   0.000000  -6.358960  14.674500
                    CHANNELS 3 Zrotation Xrotation Yrotation
                    End Site
                    {
                        OFFSET   0.000000   0.000000   3.913200
                    }
                }
            }
        }
    }
    JOINT RightHip
    {
        OFFSET  -9.783030   0.000000   0.000000
        CHANNELS 3 Zrotation Xrotation Yrotation
        JOINT RightKnee
        {
            OFFSET   0.000071 -41.789100   0.001239
            CHANNELS 3 Zrotation Xrotation Yrotation
            JOINT RightAnkle
            {
                OFFSET   0.000037 -41.133200  -0.000166
                CHANNELS 3 Zrotation Xrotation Yrotation
                JOINT RightToe
                {
                    OFFSET   0.000000  -6.358960  14.674500
                    CHANNELS 3 Zrotation Xrotation Yrotation
                    End Site
                    {
                        OFFSET   0.000000   0.000000   3.913200
                    }
                }
            }
        }
    }
}
MOTION
Frames: 4
Frame Time:   0.016667
 -0.219074  89.572700   0.293713  -2.920230  -6.921380  -0.434778   1.044200   3.108330  -0.287519   2.108680   6.210830  -0.633216   0.615552   0.484300  -0.010068   1.014790   0.981801   2.672830  -3.182310  -0.200213   0.949334 -76.063700  17.422000   1.772920  -1.291130  -4.371480 -16.324400  16.844100 -21.826700   7.326850  41.866800  28.439100 -63.018600 -22.015200   0.001784   0.003368  -6.007580   0.011778  -0.000000 -23.574100   3.916100  -8.899540 -19.537200   0.002801   0.011663 -13.676000   0.007009   0.008978 -25.406900  -0.188264   0.396285 -25.407500   0.002720   0.010582 -16.921400   0.000351   0.004793 -25.917000  -0.191717   0.394629 -25.917600  -0.000715  -0.001260 -17.261100   0.003954  -0.000497 -26.597200  -0.196409   0.392315 -39.896700   0.013239   0.000575 -26.571200  -0.005651   0.003151   7.608770   1.170690   4.810910  71.628600   8.176420  -7.517930  -0.656505  -5.295330  11.062900 -11.455700  -4.886150   0.155399 -37.857800  26.721900  63.305700  26.601500   0.002382  -0.003859   8.300760   0.001747  -0.000712  29.363500   5.830740  10.235200  24.452300   0.001148   0.002567  17.107800   0.011224   0.001822  27.965100   2.233030   4.196020  32.296400   0.001594   0.000796  21.509400  -0.000560   0.001613  26.958700   1.407510   2.764890  26.982100   0.001682   0.003351  17.970100   0.001684   0.002074  34.635700   0.312641   0.472225  51.955400   0.005384   0.002503  34.602300   0.003939  -0.000560   2.139330   9.486850   1.134190   1.202040   0.134757   7.460930  -1.441790  -3.619530   2.383820  -0.000000   0.000000  -0.000000   3.013290   7.700440  -7.665620  -0.506248   2.346590  -9.534630  -0.221238  -4.040190  -0.461800   0.000000   0.000000   0.000000
 -0.219080  89.572700   0.307009  -2.918050  -6.921400  -0.416809   1.044200   3.121660  -0.287611   2.108770   6.237490  -0.633641   0.616366   0.463753  -0.010066   1.016600   0.940095   2.651100  -3.182230  -0.200235   0.949334 -76.040100  17.441000   1.759610  -1.300890  -4.374980 -16.341900  16.830700 -21.833800   7.309950  41.867300  28.469800 -63.048700 -22.038300   0.001779   0.003349  -6.019120   0.011787   0.000000 -23.580300   3.915810  -8.895850 -19.542200   0.002796   0.011659 -13.679500   0.007006   0.008972 -25.433200  -0.173575   0.365174 -25.433600   0.002714   0.010574 -16.938800   0.000341   0.004784 -25.915400  -0.176700   0.363675 -25.915900  -0.000737  -0.001264 -17.259900   0.003949  -0.000520 -26.596800  -0.181015   0.361549 -39.895800   0.013240   0.000564 -26.570600  -0.005649   0.003142   7.608590   1.170640   4.819730  71.614400   8.192930  -7.518230  -0.644337  -5.305030  11.063200 -11.465800  -4.898520   0.155585 -37.854100  26.724900  63.287000  26.618500   0.002382  -0.003846   8.309250   0.001739  -0.000709  29.362300   5.830170  10.234900  24.451200   0.001146   0.002562  17.110100   0.011224   0.001819  27.970100   2.455090   4.610820  32.441600   0.001588   0.000793  21.606200  -0.000560   0.001605  26.958700   1.412130   2.773970  26.984600   0.001677   0.003351  17.971700   0.001678   0.002067  34.635800   0.312715   0.470868  51.955600   0.005375   0.002500  34.602400   0.003933  -0.000559   2.142940   9.531230   1.139690   1.198980   0.068339   7.469290  -1.444480  -3.590700   2.354200   0.000000   0.000000   0.000000   3.009810   7.740800  -7.667410  -0.496298   2.309900  -9.563060  -0.220654  -4.036600  -0.446493   0.000000   0.000000   0.000000
 -0.219087  89.572800   0.329835  -2.914470  -6.921420  -0.387502   1.044220   3.140120  -0.287776   2.109010   6.274410  -0.634348   0.617943   0.434111  -0.010062   1.019460   0.879876   2.614080  -3.182140  -0.200257   0.949335 -76.005600  17.460100   1.739650  -1.317310  -4.378300 -16.367100  16.807700 -21.841200   7.287790  41.865600  28.504400 -63.074200 -22.061300   0.001765   0.003328  -6.030650   0.011808   0.000000 -23.586500   3.915510  -8.892160 -19.547100   0.002775   0.011644 -13.683000   0.006998   0.008956 -25.473800  -0.145167   0.305077 -25.474000   0.002700   0.010556 -16.965700   0.000318   0.004759 -25.907800  -0.147653   0.303883 -25.908100  -0.000789  -0.001272 -17.254800   0.003934  -0.000578 -26.593000  -0.151255   0.302111 -39.889900   0.013244   0.000535 -26.566700  -0.005644   0.003118   7.608320   1.170570   4.832130  71.592000   8.209440  -7.518540  -0.628063  -5.314730  11.063600 -11.482400  -4.917380   0.155848 -37.845800  26.721800  63.262100  26.644900   0.002377  -0.003821   8.322440   0.001732  -0.000704  29.361100   5.829600  10.234200  24.450200   0.001138   0.002551  17.115100   0.011224   0.001813  27.971900   2.676760   5.025830  32.604700   0.001570   0.000786  21.714800  -0.000561   0.001583  26.961200   1.419190   2.787480  26.997600   0.001665   0.003350  17.980400   0.001663   0.002048  34.636700   0.312790   0.466961  51.956900   0.005353   0.002493  34.603300   0.003918  -0.000557   2.149210   9.575600   1.147540   1.190830   0.001924   7.477660  -1.448030  -3.561900   2.310190  -0.000000   0.000000   0.000000   3.001760   7.801270  -7.669570  -0.476420   2.250300  -9.608190  -0.221432  -4.029620  -0.425386   0.000000   0.000000   0.000000
 -0.215706  89.571700   0.349598  -2.911760  -6.915990  -0.365796   1.046100   3.147170  -0.287940   2.112860   6.288520  -0.634922   0.619708   0.420053  -0.010055   1.021830   0.851099   2.581610  -3.182200  -0.197473   0.953385 -75.988300  17.453700   1.729210  -1.330380  -4.369520 -16.380100  16.777900 -21.807300   7.279890  41.890400  28.509700 -63.051400 -22.027200   0.001743   0.003326  -6.013600   0.011836  -0.000000 -23.555500   3.917290  -8.906710 -19.522900   0.002728   0.011615 -13.666100   0.006984   0.008934 -25.501200  -0.104981   0.220239 -25.501300   0.002681   0.010528 -16.983900   0.000285   0.004720 -25.887700  -0.106551   0.219481 -25.888000  -0.000861  -0.001280 -17.241400   0.003907  -0.000666 -26.582700  -0.109184   0.218188 -39.874300   0.013251   0.000486 -26.556300  -0.005637   0.003083   7.603640   1.170510   4.836270  71.578700   8.204910  -7.522680  -0.623644  -5.311980  11.063900 -11.496500  -4.928600   0.155968 -37.826500  26.702700  63.246100  26.659700   0.002357  -0.003800   8.329840   0.001735  -0.000697  29.371600   5.831890  10.233700  24.458800   0.001127   0.002534  17.122500   0.011226   0.001802  27.975300   2.657160   4.988370  32.623300   0.001539   0.000773  21.727200  -0.000562   0.001552  26.972300   1.424320   2.796110  27.032800   0.001645   0.003349  18.003900   0.001637   0.002019  34.655300   0.312771   0.459318  51.984900   0.005318   0.002480  34.621900   0.003894  -0.000555   2.154360   9.575320   1.151590   1.182150   0.002126   7.474670  -1.454220  -3.562500   2.287810   0.000000   0.000000   0.000000   2.989050   7.835420  -7.662020  -0.451895   2.204650  -9.646540  -0.226160  -4.021330  -0.417494   0.000000   0.000000   0.000000
